<svg xmlns="http://www.w3.org/2000/svg" width="44" height="152" viewBox="0 0 44 152"><circle cx="18" cy="17" r="13.5"/><path fill="#FFF" d="M24.943 12.61l-2.55-2.55L18 14.45l-4.39-4.392-2.553 2.552 4.393 4.392-4.39 4.39 2.55 2.55 4.39-4.39 4.39 4.39 2.55-2.552L20.554 17z"/><path d="M44 149c0 1.65-1.35 3-3 3H3c-1.65 0-3-1.35-3-3v-38c0-1.65 1.35-3 3-3h38c1.65 0 3 1.35 3 3v38z"/><circle cx="17.543" cy="53" r="13.5"/><path fill="#FFF" d="M21.543 58.642l-2.704 2.37L12.63 53l6.21-8.013 2.703 2.32L17.216 53l4.327 5.642z"/><circle cx="17.543" cy="89" r="13.5"/><path fill="#FFF" d="M13.543 83.357l2.704-2.37L22.457 89l-6.21 8.013-2.704-2.32L17.87 89l-4.327-5.643z"/></svg>